<svg width="451" height="386" viewBox="0 0 451 386" fill="none" xmlns="http://www.w3.org/2000/svg">
<path d="M101.761 35.16H129.001V258.84H101.761V35.16ZM164.441 31.94V0H137.201V141.96L164.441 116.86V31.94ZM129.001 0H77.5312V27.24H129.001V0ZM192.601 0H172.361V27.24H192.601V0ZM77.5712 294.01H129.041V266.77H77.5712V294.01ZM164.441 176.1L137.201 201.2V280.86V294.01H164.441V280.86V176.1ZM172.361 294.01H192.601V266.77H172.361V294.01ZM287.821 258.84L190.081 152.42L170.011 170.85L250.821 258.84H287.811H287.821ZM236.351 294.01H301.181V266.77H236.351V294.01ZM251.871 27.24H262.331L291.991 0H254.861H241.631V27.24H251.861H251.871ZM366.321 27.24V0H355.861L326.201 27.24H366.331H366.321ZM336.761 260.51L309.521 230.85V270.98V294.01H336.761V270.98V260.52V260.51ZM344.471 266.76V294H373.161V266.76H344.471ZM195.901 147.15L298.481 258.84H301.601V221.96L215.971 128.72L195.901 147.15ZM303.661 0L137.131 152.95V189.94L343.941 0H303.661Z" fill="#D6D6D6"/>
<path d="M0 385.5V350.46H7.06V364.43H14.6L26.28 350.46H33.77V352.7L20.92 367.98L33.77 383.26V385.5H26.28L14.6 371.53H7.06V385.5H0Z" fill="#D6D6D6"/>
<path d="M105.211 354.01C104.561 352.94 103.711 352.09 102.651 351.45C101.601 350.82 100.421 350.5 99.1207 350.5H71.1406V385.49H78.1506V373.76L99.1207 373.71C100.421 373.71 101.591 373.39 102.651 372.76C103.701 372.13 104.561 371.28 105.211 370.23C105.861 369.18 106.181 368.02 106.181 366.75V357.5C106.181 356.23 105.861 355.07 105.211 354V354.01ZM99.0806 366.42C99.0806 366.49 99.0606 366.54 99.0106 366.59C98.9606 366.64 98.8906 366.66 98.7906 366.66H78.4506C78.3506 366.66 78.2807 366.64 78.2307 366.59C78.1807 366.54 78.1606 366.49 78.1606 366.42V357.81C78.1606 357.71 78.1807 357.64 78.2307 357.59C78.2807 357.54 78.3506 357.52 78.4506 357.52H98.7906C98.8906 357.52 98.9606 357.54 99.0106 357.59C99.0606 357.64 99.0806 357.71 99.0806 357.81V366.42Z" fill="#D6D6D6"/>
<path d="M146.658 385.5C145.358 385.5 144.188 385.18 143.128 384.55C142.078 383.92 141.228 383.07 140.598 382.02C139.968 380.97 139.648 379.79 139.648 378.49V357.47C139.648 356.17 139.968 355 140.598 353.94C141.228 352.89 142.078 352.04 143.128 351.41C144.178 350.78 145.358 350.46 146.658 350.46H174.588V357.52H148.308C147.788 357.52 147.388 357.66 147.088 357.93C146.798 358.21 146.648 358.62 146.648 359.17V376.79C146.648 377.31 146.798 377.71 147.088 378.01C147.378 378.31 147.788 378.45 148.308 378.45H174.588V385.51H146.658V385.5Z" fill="#D6D6D6"/>
<path d="M233.059 385.5V350.51H239.459V379.04H267.999V385.49H233.059V385.5Z" fill="#901D22"/>
<path d="M299.059 385.5V350.56H305.419V385.5H299.059Z" fill="#901D22"/>
<path d="M358.869 385.5L338.629 350.56H346.099L361.729 377.74L377.399 350.56H384.819L364.579 385.5H358.849H358.869Z" fill="#901D22"/>
<path d="M418.07 385.5V350.56H450.24V357.01H424.52V364.78H445.19V371.28H424.52V379.05H450.24V385.5H418.07Z" fill="#901D22"/>
</svg>
